<svg width="22" height="28" viewBox="0 0 22 28" fill="none" xmlns="http://www.w3.org/2000/svg">
<path d="M0.333435 23.3334V20.9001H3.0001V11.3001C3.0001 9.43341 3.55566 7.77786 4.66677 6.33341C5.77788 4.88897 7.22232 3.95564 9.0001 3.53341V2.66675C9.0001 2.11119 9.18899 1.64452 9.56677 1.26675C9.96677 0.866748 10.4445 0.666748 11.0001 0.666748C11.5557 0.666748 12.0223 0.866748 12.4001 1.26675C12.8001 1.64452 13.0001 2.11119 13.0001 2.66675V3.53341C14.7779 3.95564 16.2223 4.88897 17.3334 6.33341C18.4445 7.77786 19.0001 9.43341 19.0001 11.3001V20.9001H21.6668V23.3334H0.333435ZM11.0001 27.3334C10.2668 27.3334 9.63344 27.0779 9.1001 26.5667C8.58899 26.0334 8.33343 25.4001 8.33343 24.6667H13.6668C13.6668 25.4001 13.4001 26.0334 12.8668 26.5667C12.3557 27.0779 11.7334 27.3334 11.0001 27.3334ZM5.43344 20.9001H16.5668V11.3001C16.5668 9.76675 16.0223 8.45564 14.9334 7.36675C13.8445 6.27786 12.5334 5.73341 11.0001 5.73341C9.46677 5.73341 8.15566 6.27786 7.06677 7.36675C5.97788 8.45564 5.43344 9.76675 5.43344 11.3001V20.9001Z" fill="#032556"/>
</svg>
