<svg width="30" height="31" viewBox="0 0 30 31" fill="none" xmlns="http://www.w3.org/2000/svg">
<g clip-path="url(#clip0_49_1497)">
<path fill-rule="evenodd" clip-rule="evenodd" d="M14.7195 10.5288C12.0097 10.5288 9.81301 12.7255 9.81301 15.4353C9.81301 18.1451 12.0097 20.3418 14.7195 20.3418C17.4293 20.3418 19.626 18.1451 19.626 15.4353C19.626 12.7255 17.4293 10.5288 14.7195 10.5288ZM12.2663 15.4353C12.2663 14.0804 13.3646 12.9821 14.7195 12.9821C16.0744 12.9821 17.1728 14.0804 17.1728 15.4353C17.1728 16.7902 16.0744 17.8886 14.7195 17.8886C13.3646 17.8886 12.2663 16.7902 12.2663 15.4353Z" fill="#032556"/>
<path fill-rule="evenodd" clip-rule="evenodd" d="M24.9187 19.6105L23.7965 19.1152L24.924 19.5984C24.9852 19.4555 25.0869 19.3336 25.2166 19.2478C25.3457 19.1622 25.497 19.1162 25.6518 19.1152H25.7591C26.7351 19.1152 27.6711 18.7275 28.3612 18.0374C29.0513 17.3473 29.439 16.4113 29.439 15.4353C29.439 14.4594 29.0513 13.5234 28.3612 12.8333C27.6711 12.1432 26.7351 11.7555 25.7591 11.7555H25.5537C25.3988 11.7545 25.2476 11.7084 25.1185 11.6229C25.0315 11.5653 24.9571 11.4915 24.899 11.4059C24.8815 11.3224 24.8553 11.2406 24.8206 11.1621C24.7563 11.0163 24.7371 10.8546 24.7655 10.6979C24.7936 10.5428 24.867 10.3996 24.9764 10.2863L25.0437 10.2191C25.3856 9.87745 25.6573 9.47129 25.8424 9.02477C26.0276 8.57804 26.1229 8.09919 26.1229 7.61559C26.1229 7.132 26.0276 6.65315 25.8424 6.20642C25.6574 5.76011 25.3863 5.3546 25.0446 5.01304C24.7029 4.6709 24.297 4.39948 23.8503 4.21429C23.4036 4.0291 22.9247 3.93378 22.4411 3.93378C21.9575 3.93378 21.4787 4.0291 21.0319 4.21429C20.5852 4.39948 20.1794 4.6709 19.8376 5.01304L19.7704 5.08029C19.6571 5.18967 19.5139 5.26308 19.3588 5.29119C19.2021 5.31962 19.0404 5.30043 18.8947 5.23611L18.8826 5.23086C18.7397 5.16961 18.6178 5.0679 18.5319 4.93826C18.4464 4.80912 18.4004 4.65788 18.3994 4.50303V4.3957C18.3994 3.41973 18.0117 2.48374 17.3216 1.79363C16.6315 1.10352 15.6955 0.71582 14.7195 0.71582C13.7435 0.71582 12.8076 1.10352 12.1174 1.79363C11.4273 2.48374 11.0396 3.41973 11.0396 4.3957V4.60116C11.0387 4.75601 10.9926 4.90725 10.9071 5.03638C10.8495 5.12337 10.7757 5.19778 10.6901 5.25584C10.6065 5.27334 10.5248 5.29957 10.4462 5.33424C10.3005 5.39856 10.1388 5.41775 9.98206 5.38932C9.82702 5.36121 9.68382 5.2878 9.57052 5.1784L9.50329 5.11117C9.16152 4.76903 8.75568 4.49761 8.30894 4.31242C7.86222 4.12723 7.38336 4.03191 6.89977 4.03191C6.41618 4.03191 5.93733 4.12723 5.4906 4.31242C5.04408 4.49752 4.6384 4.76878 4.29674 5.11069C3.95483 5.45235 3.68357 5.85803 3.49847 6.30455C3.31328 6.75128 3.21796 7.23013 3.21796 7.71372C3.21796 8.19731 3.31328 8.67617 3.49847 9.1229C3.68366 9.56963 3.95508 9.97547 4.29722 10.3172L4.36445 10.3845C4.47385 10.4978 4.54726 10.641 4.57537 10.796C4.6038 10.9528 4.58461 11.1144 4.52029 11.2602C4.50985 11.2838 4.50017 11.3078 4.49125 11.332C4.43602 11.4822 4.3369 11.6123 4.20678 11.7053C4.07965 11.7963 3.92868 11.8478 3.77266 11.8536H3.67988C2.70391 11.8536 1.76792 12.2413 1.07781 12.9314C0.387701 13.6215 0 14.5575 0 15.5335C0 16.5094 0.387701 17.4454 1.07781 18.1355C1.76792 18.8256 2.70391 19.2133 3.67988 19.2133H3.88534C4.04019 19.2143 4.19143 19.2604 4.32056 19.3459C4.45021 19.4317 4.55192 19.5536 4.61317 19.6965L4.61842 19.7086C4.68274 19.8544 4.70193 20.016 4.6735 20.1728C4.64539 20.3278 4.57198 20.471 4.4626 20.5843L4.39535 20.6516C4.05321 20.9933 3.78179 21.3992 3.5966 21.8459C3.41141 22.2926 3.31609 22.7715 3.31609 23.2551C3.31609 23.7387 3.41141 24.2175 3.5966 24.6642C3.78179 25.111 4.05321 25.5168 4.39535 25.8586C4.73692 26.2003 5.14242 26.4714 5.58873 26.6564C6.03546 26.8416 6.51431 26.9369 6.9979 26.9369C7.4815 26.9369 7.96035 26.8416 8.40707 26.6564C8.8536 26.4713 9.25928 26.2 9.60094 25.8581L9.66863 25.7904C9.78194 25.681 9.92514 25.6076 10.0802 25.5795C10.2369 25.551 10.3986 25.5702 10.5444 25.6346C10.568 25.645 10.592 25.6547 10.6162 25.6636C10.7664 25.7188 10.8964 25.8179 10.9895 25.9481C11.0804 26.0752 11.1319 26.2262 11.1378 26.3822V26.475C11.1378 27.4509 11.5255 28.3869 12.2156 29.077C12.9057 29.7671 13.8417 30.1548 14.8176 30.1548C15.7936 30.1548 16.7296 29.7671 17.4197 29.077C18.1098 28.3869 18.4975 27.4509 18.4975 26.475V26.2695C18.4985 26.1147 18.5445 25.9634 18.6301 25.8343C18.7159 25.7046 18.8378 25.6029 18.9807 25.5417L18.9928 25.5364C19.1385 25.4721 19.3002 25.4529 19.457 25.4813C19.612 25.5095 19.7552 25.5829 19.8685 25.6922L19.9357 25.7595C20.2774 26.1014 20.6836 26.3731 21.1301 26.5582C21.5768 26.7434 22.0557 26.8388 22.5393 26.8388C23.0228 26.8388 23.5017 26.7434 23.9484 26.5582C24.3949 26.3731 24.8006 26.1019 25.1423 25.76C25.4842 25.4183 25.7555 25.0126 25.9406 24.5661C26.1257 24.1194 26.2211 23.6405 26.2211 23.1569C26.2211 22.6733 26.1257 22.1945 25.9406 21.7478C25.7555 21.3013 25.4842 20.8956 25.1423 20.5539L25.0745 20.4862C24.9652 20.3729 24.8918 20.2297 24.8636 20.0747C24.8352 19.9179 24.8544 19.7562 24.9187 19.6105ZM13.8522 3.52834C14.0822 3.29831 14.3942 3.16907 14.7195 3.16907C15.0448 3.16907 15.3568 3.29831 15.5869 3.52834C15.8169 3.75838 15.9461 4.07038 15.9461 4.3957V4.50609L15.9461 4.51099C15.9487 5.14492 16.1365 5.76428 16.4865 6.29282C16.8354 6.81952 17.3301 7.23313 17.9101 7.48313C18.5027 7.74326 19.1596 7.82057 19.7965 7.70509C20.4356 7.58921 21.0253 7.28455 21.4896 6.83038L21.4992 6.82087L21.5728 6.74727C21.6867 6.63322 21.8225 6.54227 21.9714 6.48054C22.1203 6.41881 22.2799 6.38704 22.4411 6.38704C22.6023 6.38704 22.7619 6.41881 22.9108 6.48054C23.0598 6.54227 23.195 6.63274 23.309 6.74679L23.3099 6.74775C23.424 6.86168 23.5145 6.99696 23.5762 7.14587C23.6379 7.29478 23.6697 7.4544 23.6697 7.61559C23.6697 7.77679 23.6379 7.9364 23.5762 8.08532C23.5145 8.23422 23.424 8.36951 23.3099 8.48343L23.2358 8.55751L23.2263 8.56713C22.7722 9.03143 22.4675 9.62113 22.3516 10.2602C22.251 10.815 22.2967 11.385 22.4821 11.9144C22.4967 12.0258 22.5265 12.1349 22.571 12.2387C22.8207 12.8213 23.2354 13.3183 23.7639 13.6683C24.2924 14.0183 24.9118 14.2062 25.5457 14.2087L25.5506 14.2087H25.7591C26.0845 14.2087 26.3965 14.3379 26.6265 14.568C26.8565 14.798 26.9858 15.11 26.9858 15.4353C26.9858 15.7607 26.8565 16.0726 26.6265 16.3027C26.3965 16.5327 26.0845 16.662 25.7591 16.662L25.6488 16.6619L25.6439 16.662C25.0099 16.6645 24.3906 16.8523 23.862 17.2024C23.3353 17.5512 22.9216 18.046 22.6717 18.6261C22.4116 19.2187 22.3343 19.8755 22.4498 20.5123C22.5656 21.1514 22.8703 21.7411 23.3245 22.2054L23.334 22.215L23.4076 22.2886C23.5216 22.4025 23.6126 22.5383 23.6743 22.6872C23.736 22.8361 23.7678 22.9957 23.7678 23.1569C23.7678 23.3181 23.736 23.4778 23.6743 23.6267C23.6126 23.7756 23.5221 23.9109 23.4081 24.0248L23.4071 24.0257C23.2932 24.1398 23.1579 24.2303 23.009 24.292C22.8601 24.3537 22.7004 24.3855 22.5393 24.3855C22.3781 24.3855 22.2184 24.3537 22.0695 24.292C21.9206 24.2303 21.7853 24.1398 21.6714 24.0257L21.5973 23.9517L21.5877 23.9422C21.1234 23.488 20.5337 23.1833 19.8946 23.0674C19.2578 22.952 18.601 23.0293 18.0084 23.2893C17.4283 23.5393 16.9335 23.953 16.5847 24.4797C16.2346 25.0083 16.0468 25.6276 16.0443 26.2615L16.0443 26.2664V26.475C16.0443 26.8003 15.915 27.1123 15.685 27.3423C15.455 27.5724 15.143 27.7016 14.8176 27.7016C14.4923 27.7016 14.1803 27.5724 13.9503 27.3423C13.7203 27.1123 13.591 26.8003 13.591 26.475V26.3646L13.5907 26.3359C13.5754 25.6838 13.3644 25.0514 12.9849 24.5209C12.613 24.0009 12.0962 23.6023 11.4993 23.3747C10.9145 23.1249 10.2689 23.052 9.64251 23.1656C9.00344 23.2815 8.41374 23.5861 7.94944 24.0403L7.93981 24.0498L7.86621 24.1234C7.75229 24.2374 7.61654 24.3284 7.46763 24.3901C7.31871 24.4519 7.1591 24.4836 6.9979 24.4836C6.83671 24.4836 6.67709 24.4519 6.52818 24.3901C6.37926 24.3284 6.24398 24.2379 6.13006 24.1239L6.1291 24.1229C6.01505 24.009 5.92458 23.8737 5.86285 23.7248C5.80112 23.5759 5.76935 23.4163 5.76935 23.2551C5.76935 23.0939 5.80112 22.9343 5.86285 22.7853C5.92458 22.6364 6.01505 22.5012 6.1291 22.3872L6.20318 22.3132L6.21269 22.3035C6.66686 21.8392 6.97152 21.2495 7.0874 20.6105C7.20288 19.9735 7.12557 19.3167 6.86544 18.7241C6.61544 18.144 6.20183 17.6493 5.67513 17.3005C5.14658 16.9505 4.52723 16.7626 3.8933 16.7601L3.8884 16.7601H3.67988C3.35456 16.7601 3.04256 16.6309 2.81252 16.4008C2.58249 16.1708 2.45325 15.8588 2.45325 15.5335C2.45325 15.2081 2.58249 14.8961 2.81252 14.6661C3.04256 14.4361 3.35456 14.3068 3.67988 14.3068H3.79027L3.81896 14.3065C4.47103 14.2912 5.10343 14.0802 5.63395 13.7007C6.15396 13.3288 6.5525 12.812 6.78011 12.2152C7.02995 11.6303 7.10284 10.9847 6.98927 10.3583C6.87339 9.71926 6.56873 9.12955 6.11456 8.66526L6.10505 8.65564L6.03145 8.58204C5.9174 8.46812 5.82645 8.33236 5.76472 8.18345C5.70299 8.03454 5.67122 7.87492 5.67122 7.71372C5.67122 7.55252 5.70299 7.39291 5.76472 7.244C5.82645 7.09509 5.91692 6.9598 6.03097 6.84588L6.03193 6.84492C6.14585 6.73087 6.28114 6.6404 6.43005 6.57867C6.57896 6.51694 6.73857 6.48517 6.89977 6.48517C7.06097 6.48517 7.22059 6.51694 7.3695 6.57867C7.51841 6.6404 7.65369 6.73087 7.76761 6.84492L7.84169 6.919L7.85131 6.92851C8.31561 7.38268 8.90531 7.68734 9.54438 7.80322C10.0992 7.90382 10.6692 7.85812 11.1986 7.67271C11.31 7.65815 11.4191 7.62832 11.5228 7.58387C12.1055 7.33414 12.6025 6.91949 12.9525 6.39095C13.3025 5.86241 13.4903 5.24305 13.4929 4.60912L13.4929 4.60422V4.3957C13.4929 4.07038 13.6221 3.75838 13.8522 3.52834Z" fill="#032556"/>
</g>
<defs>
<clipPath id="clip0_49_1497">
<rect width="29.439" height="29.439" fill="white" transform="translate(0 0.71582)"/>
</clipPath>
</defs>
</svg>
