<svg width="21" height="21" viewBox="0 0 21 21" fill="none" xmlns="http://www.w3.org/2000/svg">
<g clip-path="url(#clip0_36_1176)">
<path fill-rule="evenodd" clip-rule="evenodd" d="M10.696 5.80469C8.85509 5.80469 7.36271 7.29707 7.36271 9.13802C7.36271 10.979 8.85509 12.4714 10.696 12.4714C12.537 12.4714 14.0294 10.979 14.0294 9.13802C14.0294 7.29707 12.537 5.80469 10.696 5.80469ZM9.02938 9.13802C9.02938 8.21755 9.77557 7.47135 10.696 7.47135C11.6165 7.47135 12.3627 8.21755 12.3627 9.13802C12.3627 10.0585 11.6165 10.8047 10.696 10.8047C9.77557 10.8047 9.02938 10.0585 9.02938 9.13802Z" fill="#EBFDFF"/>
<path fill-rule="evenodd" clip-rule="evenodd" d="M10.2333 20.6644C10.2336 20.6646 10.2338 20.6647 10.696 19.9714L10.2333 20.6644C10.5133 20.851 10.8784 20.8513 11.1583 20.6647L10.696 19.9714C11.1583 20.6647 11.1581 20.6649 11.1583 20.6647L11.1611 20.6628L11.1667 20.6591L11.1858 20.6462C11.202 20.6352 11.2251 20.6193 11.2547 20.5988C11.3139 20.5579 11.399 20.4981 11.5062 20.4207C11.7206 20.2659 12.0241 20.0399 12.387 19.7509C13.1116 19.1739 14.0799 18.3404 15.051 17.3153C16.9592 15.3011 19.0294 12.3896 19.0294 9.13802C19.0294 6.92788 18.1514 4.80827 16.5886 3.24546C15.0258 1.68266 12.9062 0.804688 10.696 0.804688C8.48591 0.804688 6.36629 1.68266 4.80349 3.24546C3.24068 4.80827 2.36271 6.92788 2.36271 9.13802C2.36271 12.3896 4.43293 15.3011 6.34108 17.3153C7.3122 18.3404 8.28049 19.1739 9.00506 19.7509C9.36801 20.0399 9.6715 20.2659 9.88587 20.4207C9.9931 20.4981 10.0782 20.5579 10.1373 20.5988C10.1669 20.6193 10.1901 20.6352 10.2063 20.6462L10.2254 20.6591L10.231 20.6628L10.2333 20.6644ZM5.982 4.42398C7.23224 3.17373 8.92793 2.47135 10.696 2.47135C12.4642 2.47135 14.1598 3.17373 15.4101 4.42398C16.6603 5.67422 17.3627 7.36991 17.3627 9.13802C17.3627 11.7197 15.6829 14.2249 13.8411 16.1691C12.9372 17.1232 12.0305 17.9042 11.3488 18.4471C11.0951 18.6491 10.8735 18.8174 10.696 18.9485C10.5186 18.8174 10.297 18.6491 10.0433 18.4471C9.3616 17.9042 8.45489 17.1232 7.551 16.1691C5.70916 14.2249 4.02938 11.7197 4.02938 9.13802C4.02938 7.36991 4.73175 5.67422 5.982 4.42398Z" fill="#EBFDFF"/>
</g>
<defs>
<clipPath id="clip0_36_1176">
<rect width="20" height="20" fill="white" transform="translate(0.696045 0.804688)"/>
</clipPath>
</defs>
</svg>
