<svg width="25" height="37" viewBox="0 0 25 37" fill="none" xmlns="http://www.w3.org/2000/svg">
<rect x="-0.963377" y="0.963377" width="17.2116" height="21.5277" rx="2.07689" transform="matrix(-1 0 0 1 19.9406 8.35352)" stroke="#032556" stroke-opacity="0.5" stroke-width="1.92675"/>
<path d="M17.5992 13.1499V27.0672" stroke="#032556" stroke-opacity="0.5" stroke-width="1.92675" stroke-linecap="round"/>
<path d="M14.0886 13.1499V27.0672" stroke="#032556" stroke-opacity="0.5" stroke-width="1.92675" stroke-linecap="round"/>
<path d="M10.5779 13.1499V27.0672" stroke="#032556" stroke-opacity="0.5" stroke-width="1.92675" stroke-linecap="round"/>
<path d="M7.06732 13.1499V27.0672" stroke="#032556" stroke-opacity="0.5" stroke-width="1.92675" stroke-linecap="round"/>
<path d="M6.83513 9.07102V5.02318C6.83513 3.34409 8.1963 1.98291 9.87539 1.98291H14.7209C16.4 1.98291 17.7612 3.34409 17.7612 5.02318V9.07102" stroke="#032556" stroke-opacity="0.5" stroke-width="1.92675"/>
<circle cx="1.96983" cy="1.96983" r="1.96983" transform="matrix(-1 0 0 1 19.731 32.2871)" fill="#032556" fill-opacity="0.5"/>
<circle cx="1.96983" cy="1.96983" r="1.96983" transform="matrix(-1 0 0 1 8.11392 32.2871)" fill="#032556" fill-opacity="0.5"/>
</svg>
